<?xml version="1.0" standalone="no"?>
<!DOCTYPE svg PUBLIC "-//W3C//DTD SVG 1.1//EN" "http://www.w3.org/Graphics/SVG/1.1/DTD/svg11.dtd">
<svg xmlns="http://www.w3.org/2000/svg" id="Layer_1" data-name="Layer 1" viewBox="0 0 16 16" width="16" height="16"><path d="M9.9.92A1.76,1.76,0,0,0,8.52.3a1.82,1.82,0,0,0-1.4.63,2.16,2.16,0,0,0-.57,1.52A2.24,2.24,0,0,0,7.11,4a1.8,1.8,0,0,0,1.41.63A1.76,1.76,0,0,0,9.9,4a2.24,2.24,0,0,0,.55-1.56A2.2,2.2,0,0,0,9.9.92Z" fill="#3d54a5"/><path d="M10.94,10.54a4.63,4.63,0,0,1-1.57,2.39,3.09,3.09,0,0,1-.86.45L9.4,5.9,7.4,6A3,3,0,0,1,5.91,7.24a3.84,3.84,0,0,1-2,0C3.52,7.14,3.2,7.05,3,7l-.24.41a6.3,6.3,0,0,0,1.18.73,3.88,3.88,0,0,0,1.83.48,3.34,3.34,0,0,0,1.38-.38L6.5,13.48l0,.18-.23,1.91h.24l.47.07h.5a6.93,6.93,0,0,0,.78-.07,5.56,5.56,0,0,0,1.83-.78,7.34,7.34,0,0,0,2.42-3.44,10.81,10.81,0,0,0,.78-3.56l-1.63-.09A13.48,13.48,0,0,1,10.94,10.54Z" fill="#3d54a5"/></svg>